<?xml version="1.0" encoding="UTF-8"?>
<svg version="1.1" xmlns="http://www.w3.org/2000/svg" width="128" height="128">
<path d="M0 0 C13.2 0 26.4 0 40 0 C40 31.68 40 63.36 40 96 C26.8 96 13.6 96 0 96 C0 90.72 0 85.44 0 80 C7.92 80 15.84 80 24 80 C24 72.08 24 64.16 24 56 C16.08 56 8.16 56 0 56 C0 50.72 0 45.44 0 40 C7.92 40 15.84 40 24 40 C24 32.08 24 24.16 24 16 C16.08 16 8.16 16 0 16 C0 10.72 0 5.44 0 0 Z " fill="#000000" transform="translate(16,16)"/>
<path d="M0 0 C13.2 0 26.4 0 40 0 C40 5.28 40 10.56 40 16 C26.8 16 13.6 16 0 16 C0 10.72 0 5.44 0 0 Z " fill="#000000" transform="translate(72,96)"/>
<path d="M0 0 C13.2 0 26.4 0 40 0 C40 5.28 40 10.56 40 16 C26.8 16 13.6 16 0 16 C0 10.72 0 5.44 0 0 Z " fill="#000000" transform="translate(72,56)"/>
<path d="M0 0 C13.2 0 26.4 0 40 0 C40 5.28 40 10.56 40 16 C26.8 16 13.6 16 0 16 C0 10.72 0 5.44 0 0 Z " fill="#000000" transform="translate(72,16)"/>
</svg>
